<svg xmlns="http://www.w3.org/2000/svg" width="48" height="48" fill="none" class="injected-svg" color="#101828" data-src="https://cdn.hugeicons.com/icons/thumbs-down-solid-standard.svg" viewBox="0 0 24 24"><path fill="#101828" fill-rule="evenodd" d="M6 5H3v7.757h3V5ZM3 3h3a2 2 0 0 1 2 2v7.757a2 2 0 0 1-2 2H3a2 2 0 0 1-2-2V5a2 2 0 0 1 2-2Z" clip-rule="evenodd"/><path fill="#101828" fill-rule="evenodd" d="M6.25 3.755a.75.75 0 0 1 .75-.75h11.081a2.75 2.75 0 0 1 2.596 1.841l2.1 6a2.75 2.75 0 0 1-2.596 3.659h-4.527l.137.307a5.75 5.75 0 0 1-1.189 6.401l-.072.072a.75.75 0 0 1-1.06 0l-7-7a.75.75 0 0 1-.22-.53v-10Z" clip-rule="evenodd"/></svg>